<svg width="125" height="65" viewBox="0 0 125 65" fill="none" xmlns="http://www.w3.org/2000/svg">
<g clip-path="url(#clip0_26_2)">
<rect width="125" height="65" fill="white"/>
<path d="M11.1154 28.5392L0 65.5H30.0769L18.9615 28.5392H11.1154Z" fill="#BC9900" stroke="black"/>
<path d="M30.0769 15.1569C30.0769 23.2516 22.597 29.1765 15.0385 29.1765C6.73295 29.1765 0 23.2516 0 15.1569C0 7.0621 6.73295 0.5 15.0385 0.5C23.344 0.5 30.0769 7.0621 30.0769 15.1569Z" fill="#BC9900" stroke="black"/>
<path d="M15.0385 28.5392L3.92308 65.5H34L22.8846 28.5392H15.0385Z" fill="#FDD837" stroke="black"/>
<path d="M34 15.1569C34 23.2516 26.5201 29.1765 18.9615 29.1765C10.656 29.1765 3.92308 23.2516 3.92308 15.1569C3.92308 7.0621 10.656 0.5 18.9615 0.5C27.2671 0.5 34 7.0621 34 15.1569Z" fill="#FDD837" stroke="black"/>
<path d="M40.9124 38.5435V34.9072H42.4891C42.7661 34.9072 42.9987 34.9444 43.1869 35.019C43.3763 35.0936 43.519 35.1989 43.6149 35.3351C43.7119 35.4712 43.7605 35.6316 43.7605 35.8162C43.7605 35.95 43.7309 36.0719 43.6717 36.182C43.6137 36.2921 43.532 36.3844 43.4266 36.459C43.3213 36.5324 43.1982 36.5833 43.0573 36.6117V36.6472C43.2136 36.6531 43.3556 36.6928 43.4835 36.7662C43.6113 36.8384 43.7131 36.9384 43.7889 37.0662C43.8646 37.1929 43.9025 37.3421 43.9025 37.5137C43.9025 37.7126 43.8504 37.8895 43.7463 38.0446C43.6433 38.1996 43.4965 38.3216 43.3059 38.4104C43.1153 38.4991 42.8881 38.5435 42.6241 38.5435H40.9124ZM41.8997 37.7552H42.3613C42.527 37.7552 42.6513 37.7244 42.7342 37.6628C42.817 37.6001 42.8585 37.5078 42.8585 37.3858C42.8585 37.3006 42.8389 37.2284 42.7999 37.1692C42.7608 37.11 42.7052 37.0651 42.633 37.0343C42.5619 37.0035 42.4761 36.9881 42.3755 36.9881H41.8997V37.7552ZM41.8997 36.3773H42.3045C42.3909 36.3773 42.4673 36.3637 42.5335 36.3365C42.5998 36.3093 42.6513 36.2702 42.688 36.2193C42.7259 36.1672 42.7448 36.1039 42.7448 36.0293C42.7448 35.9169 42.7046 35.831 42.6241 35.7719C42.5436 35.7115 42.4418 35.6813 42.3187 35.6813H41.8997V36.3773ZM44.8631 39.5662C44.7506 39.5662 44.6435 39.5574 44.5417 39.5396C44.4399 39.523 44.3505 39.5 44.2736 39.4704L44.4867 38.7743C44.5672 38.8028 44.6405 38.8211 44.7068 38.8294C44.7743 38.8377 44.8317 38.8329 44.8791 38.8152C44.9276 38.7974 44.9625 38.7637 44.9838 38.714L45.0051 38.6643L44.0463 35.8162H45.0691L45.5094 37.7054H45.5378L45.9852 35.8162H47.0151L46.0208 38.7708C45.971 38.9211 45.8988 39.0561 45.8041 39.1756C45.7106 39.2964 45.5875 39.3916 45.4348 39.4615C45.2821 39.5313 45.0915 39.5662 44.8631 39.5662ZM48.2757 38.5435V34.9072H50.8965V35.7026H49.2629V36.3276H50.7615V37.1231H49.2629V37.7481H50.8894V38.5435H48.2757ZM53.1901 36.356V37.0947H51.4855V36.356H53.1901ZM57.154 36.2708H56.1526C56.1455 36.1879 56.1265 36.1128 56.0958 36.0453C56.0662 35.9778 56.0247 35.9198 55.9715 35.8713C55.9194 35.8216 55.8561 35.7837 55.7815 35.7577C55.7069 35.7304 55.6223 35.7168 55.5276 35.7168C55.3619 35.7168 55.2216 35.7571 55.1068 35.8376C54.9931 35.918 54.9067 36.0335 54.8475 36.1838C54.7895 36.3341 54.7605 36.5146 54.7605 36.7253C54.7605 36.9479 54.7901 37.1343 54.8493 37.2846C54.9097 37.4338 54.9967 37.5462 55.1103 37.622C55.224 37.6966 55.3607 37.7339 55.5205 37.7339C55.6116 37.7339 55.6933 37.7226 55.7655 37.7001C55.8377 37.6764 55.9005 37.6427 55.9537 37.5989C56.007 37.5551 56.0502 37.5024 56.0833 37.4409C56.1177 37.3782 56.1408 37.3077 56.1526 37.2296L57.154 37.2367C57.1422 37.3906 57.099 37.5474 57.0244 37.7072C56.9498 37.8658 56.8439 38.0126 56.7066 38.1476C56.5704 38.2813 56.4018 38.389 56.2005 38.4707C55.9993 38.5524 55.7655 38.5932 55.4992 38.5932C55.1654 38.5932 54.8659 38.5216 54.6007 38.3784C54.3368 38.2352 54.1279 38.0245 53.974 37.7463C53.8213 37.4681 53.7449 37.1278 53.7449 36.7253C53.7449 36.3205 53.823 35.9796 53.9793 35.7026C54.1355 35.4244 54.3462 35.2143 54.6114 35.0723C54.8765 34.9291 55.1725 34.8574 55.4992 34.8574C55.7288 34.8574 55.9401 34.8888 56.1331 34.9515C56.326 35.0143 56.4953 35.106 56.6409 35.2268C56.7865 35.3463 56.9037 35.4937 56.9924 35.6689C57.0812 35.8441 57.1351 36.0447 57.154 36.2708ZM58.9229 38.5932C58.6317 38.5932 58.3808 38.5376 58.1701 38.4263C57.9606 38.3139 57.799 38.1529 57.6853 37.9434C57.5729 37.7327 57.5167 37.4805 57.5167 37.187C57.5167 36.9053 57.5735 36.659 57.6871 36.4483C57.8008 36.2376 57.9612 36.0737 58.1683 35.9565C58.3755 35.8393 58.6199 35.7807 58.9016 35.7807C59.1076 35.7807 59.294 35.8127 59.4609 35.8766C59.6278 35.9405 59.7705 36.0335 59.8888 36.1554C60.0072 36.2761 60.0983 36.4229 60.1623 36.5957C60.2262 36.7685 60.2581 36.9633 60.2581 37.1799V37.4072H57.8221V36.8674H59.3562C59.355 36.7893 59.3349 36.7206 59.2958 36.6614C59.2579 36.601 59.2064 36.5543 59.1413 36.5211C59.0774 36.4868 59.0046 36.4697 58.9229 36.4697C58.8436 36.4697 58.7708 36.4868 58.7045 36.5211C58.6382 36.5543 58.585 36.6005 58.5447 36.6596C58.5057 36.7188 58.4849 36.7881 58.4826 36.8674V37.4498C58.4826 37.5374 58.5009 37.6155 58.5376 37.6841C58.5743 37.7528 58.627 37.8067 58.6956 37.8457C58.7643 37.8848 58.8472 37.9043 58.9442 37.9043C59.0117 37.9043 59.0733 37.8948 59.1289 37.8759C59.1857 37.857 59.2342 37.8297 59.2745 37.7942C59.3147 37.7575 59.3443 37.7137 59.3633 37.6628H60.2581C60.2274 37.8522 60.1546 38.0168 60.0398 38.1564C59.9249 38.2949 59.7728 38.4027 59.5834 38.4796C59.3952 38.5554 59.1751 38.5932 58.9229 38.5932ZM61.6382 34.9072V38.5435H60.6581V34.9072H61.6382ZM63.1177 34.9072V38.5435H62.1376V34.9072H63.1177ZM67.1061 39.1614C66.7178 39.1614 66.3704 39.1087 66.0638 39.0034C65.7584 38.8992 65.4992 38.7465 65.2861 38.5453C65.073 38.3441 64.9103 38.0996 64.7978 37.812C64.6854 37.5243 64.6286 37.1976 64.6274 36.8319C64.6286 36.4673 64.6854 36.1341 64.7978 35.8322C64.9103 35.5292 65.0748 35.2676 65.2914 35.0474C65.5092 34.8261 65.7762 34.655 66.0922 34.5343C66.4083 34.4135 66.7699 34.3532 67.1771 34.3532C67.544 34.3532 67.8749 34.4035 68.1696 34.5041C68.4656 34.6035 68.7183 34.7503 68.9278 34.9444C69.1385 35.1374 69.2995 35.3747 69.4108 35.6564C69.5232 35.9382 69.5788 36.2613 69.5777 36.6259C69.5788 36.8745 69.5528 37.0923 69.4995 37.2793C69.4463 37.4652 69.3676 37.622 69.2634 37.7498C69.1592 37.8777 69.0314 37.9771 68.8799 38.0481C68.7295 38.1192 68.5573 38.1635 68.3632 38.1813C68.1892 38.1979 68.0643 38.1896 67.9885 38.1564C67.9128 38.1233 67.8636 38.076 67.8412 38.0144C67.8187 37.9528 67.8009 37.8877 67.7879 37.8191H67.7666C67.7394 37.8925 67.676 37.9564 67.5766 38.0108C67.4772 38.0653 67.36 38.1061 67.225 38.1334C67.0901 38.1606 66.9557 38.1695 66.822 38.16C66.6918 38.1505 66.5616 38.1192 66.4314 38.0659C66.3011 38.0126 66.1816 37.9327 66.0727 37.8262C65.965 37.7197 65.8786 37.5829 65.8135 37.416C65.7484 37.2479 65.7152 37.0461 65.714 36.8106C65.7152 36.5738 65.7478 36.3726 65.8117 36.2069C65.8768 36.0412 65.9602 35.9044 66.062 35.7967C66.165 35.689 66.2757 35.6061 66.3941 35.5481C66.5136 35.4901 66.6279 35.4517 66.7368 35.4327C66.88 35.4067 67.0191 35.4037 67.154 35.4238C67.289 35.4428 67.4038 35.4753 67.4985 35.5215C67.5932 35.5665 67.6518 35.615 67.6743 35.6671H67.7027V35.4682H68.3774V37.2864C68.3797 37.3574 68.3916 37.4048 68.4129 37.4285C68.4354 37.4521 68.4614 37.464 68.491 37.464C68.5466 37.464 68.5987 37.432 68.6473 37.3681C68.697 37.303 68.7366 37.2041 68.7662 37.0716C68.797 36.9378 68.8118 36.7679 68.8106 36.562C68.8118 36.2968 68.7775 36.0755 68.7076 35.8979C68.639 35.7192 68.5466 35.576 68.4306 35.4682C68.3146 35.3593 68.185 35.2777 68.0418 35.2232C67.8997 35.1676 67.7536 35.1309 67.6032 35.1131C67.4529 35.0942 67.3109 35.0847 67.1771 35.0847C66.8705 35.0847 66.6065 35.1309 66.3852 35.2232C66.165 35.3144 65.9839 35.4398 65.8419 35.5996C65.6998 35.7582 65.5945 35.9399 65.5258 36.1447C65.4583 36.3483 65.424 36.5632 65.4228 36.7893C65.424 37.0556 65.4625 37.2906 65.5382 37.4942C65.6152 37.6978 65.727 37.8682 65.8738 38.0055C66.0218 38.1428 66.2035 38.247 66.4189 38.318C66.6355 38.3879 66.8835 38.4228 67.1629 38.4228C67.3038 38.4228 67.4405 38.4151 67.573 38.3997C67.7056 38.3831 67.8275 38.3618 67.9388 38.3358C68.0501 38.3086 68.1442 38.2784 68.2211 38.2452L68.4484 38.8844C68.3738 38.9341 68.2691 38.9797 68.1341 39.0211C68.0004 39.0638 67.8453 39.0975 67.6689 39.1224C67.4937 39.1484 67.3061 39.1614 67.1061 39.1614ZM67.1061 37.4285C67.2422 37.4285 67.3487 37.4036 67.4257 37.3539C67.5038 37.303 67.5582 37.2296 67.589 37.1337C67.621 37.0367 67.6352 36.9195 67.6316 36.7822C67.6305 36.678 67.6168 36.5809 67.5908 36.491C67.5659 36.3998 67.515 36.3264 67.4381 36.2708C67.3623 36.214 67.2469 36.1856 67.0919 36.1856C66.9628 36.1856 66.8533 36.2086 66.7634 36.2548C66.6746 36.2998 66.6065 36.3673 66.5592 36.4572C66.513 36.546 66.4894 36.6567 66.4882 36.7893C66.4894 36.8982 66.5089 37.0017 66.5468 37.1C66.5858 37.197 66.6497 37.2764 66.7385 37.3379C66.8285 37.3983 66.951 37.4285 67.1061 37.4285ZM71.0123 38.5435H69.947L71.1473 34.9072H72.4967L73.697 38.5435H72.6316L71.8362 35.9086H71.8078L71.0123 38.5435ZM70.8135 37.1089H72.8163V37.8475H70.8135V37.1089ZM75.0415 34.9072V38.5435H74.0614V34.9072H75.0415ZM76.521 34.9072V38.5435H75.5409V34.9072H76.521ZM77.0204 38.5435V35.8162H78.0005V38.5435H77.0204ZM77.5105 35.5322C77.3779 35.5322 77.2642 35.4884 77.1695 35.4008C77.0749 35.3132 77.0275 35.2078 77.0275 35.0847C77.0275 34.9616 77.0749 34.8563 77.1695 34.7687C77.2642 34.6811 77.3779 34.6373 77.5105 34.6373C77.6442 34.6373 77.7579 34.6811 77.8514 34.7687C77.9461 34.8563 77.9934 34.9616 77.9934 35.0847C77.9934 35.2078 77.9461 35.3132 77.8514 35.4008C77.7579 35.4884 77.6442 35.5322 77.5105 35.5322ZM79.2598 38.5861C79.0858 38.5861 78.9319 38.5577 78.7982 38.5009C78.6656 38.4429 78.5614 38.3553 78.4857 38.2381C78.4099 38.1209 78.3721 37.9718 78.3721 37.7907C78.3721 37.6415 78.3975 37.5143 78.4484 37.4089C78.4993 37.3024 78.5703 37.2154 78.6615 37.1479C78.7526 37.0804 78.8586 37.029 78.9793 36.9934C79.1012 36.9579 79.2326 36.9349 79.3735 36.9242C79.5262 36.9124 79.6487 36.8982 79.741 36.8816C79.8345 36.8638 79.902 36.8396 79.9434 36.8088C79.9849 36.7768 80.0056 36.7348 80.0056 36.6827V36.6756C80.0056 36.6046 79.9783 36.5501 79.9239 36.5123C79.8694 36.4744 79.7996 36.4554 79.7144 36.4554C79.6209 36.4554 79.5445 36.4762 79.4853 36.5176C79.4273 36.5578 79.3924 36.62 79.3806 36.704H78.4786C78.4904 36.5383 78.5431 36.3856 78.6366 36.2459C78.7313 36.1051 78.8692 35.9926 79.0503 35.9086C79.2314 35.8233 79.4575 35.7807 79.7286 35.7807C79.9239 35.7807 80.0991 35.8038 80.2542 35.85C80.4092 35.895 80.5412 35.9583 80.6501 36.04C80.759 36.1205 80.8419 36.2152 80.8987 36.3241C80.9567 36.4318 80.9857 36.549 80.9857 36.6756V38.5435H80.0695V38.16H80.0482C79.9937 38.2618 79.9274 38.3441 79.8493 38.4068C79.7724 38.4695 79.6842 38.5151 79.5848 38.5435C79.4865 38.5719 79.3782 38.5861 79.2598 38.5861ZM79.5794 37.9682C79.654 37.9682 79.7239 37.9528 79.789 37.9221C79.8552 37.8913 79.9091 37.8469 79.9505 37.7889C79.992 37.7309 80.0127 37.6605 80.0127 37.5776V37.3503C79.9866 37.361 79.9588 37.3711 79.9292 37.3805C79.9008 37.39 79.87 37.3989 79.8369 37.4072C79.8049 37.4154 79.7706 37.4231 79.7339 37.4302C79.6984 37.4373 79.6611 37.4438 79.6221 37.4498C79.5463 37.4616 79.4841 37.4811 79.4356 37.5084C79.3883 37.5344 79.3528 37.567 79.3291 37.606C79.3066 37.6439 79.2953 37.6865 79.2953 37.7339C79.2953 37.8096 79.322 37.8676 79.3752 37.9079C79.4285 37.9481 79.4966 37.9682 79.5794 37.9682ZM82.4341 37.0094V38.5435H81.454V35.8162H82.3844V36.3347H82.4128C82.472 36.1619 82.5762 36.0264 82.7253 35.9281C82.8756 35.8299 83.0508 35.7807 83.2509 35.7807C83.4438 35.7807 83.6113 35.8251 83.7534 35.9139C83.8966 36.0015 84.0073 36.1222 84.0854 36.2761C84.1647 36.43 84.2038 36.6058 84.2026 36.8035V38.5435H83.2225V37.0094C83.2236 36.8745 83.1893 36.7685 83.1195 36.6916C83.0508 36.6147 82.9549 36.5762 82.8318 36.5762C82.7513 36.5762 82.6809 36.5939 82.6205 36.6295C82.5614 36.6638 82.5158 36.7135 82.4838 36.7786C82.4519 36.8425 82.4353 36.9195 82.4341 37.0094ZM86.0003 38.5932C85.7044 38.5932 85.4511 38.5346 85.2404 38.4175C85.0297 38.2991 84.8681 38.1345 84.7557 37.9238C84.6432 37.712 84.587 37.4663 84.587 37.187C84.587 36.9076 84.6432 36.6626 84.7557 36.4519C84.8681 36.24 85.0297 36.0755 85.2404 35.9583C85.4511 35.8399 85.7044 35.7807 86.0003 35.7807C86.2679 35.7807 86.4993 35.8293 86.6946 35.9263C86.8911 36.0222 87.0432 36.1583 87.1509 36.3347C87.2586 36.5099 87.3131 36.7159 87.3143 36.9526H86.4052C86.3921 36.8094 86.3507 36.7005 86.2809 36.6259C86.2122 36.5501 86.1234 36.5123 86.0145 36.5123C85.9293 36.5123 85.8547 36.5371 85.7908 36.5868C85.7269 36.6354 85.6772 36.7094 85.6417 36.8088C85.6062 36.907 85.5884 37.0307 85.5884 37.1799C85.5884 37.329 85.6062 37.4533 85.6417 37.5528C85.6772 37.651 85.7269 37.725 85.7908 37.7747C85.8547 37.8232 85.9293 37.8475 86.0145 37.8475C86.0867 37.8475 86.1507 37.8309 86.2063 37.7978C86.2619 37.7635 86.3069 37.7137 86.3412 37.6486C86.3768 37.5823 86.3981 37.5019 86.4052 37.4072H87.3143C87.3107 37.6474 87.2557 37.857 87.1491 38.0357C87.0426 38.2133 86.8917 38.3506 86.6964 38.4476C86.5022 38.5447 86.2702 38.5932 86.0003 38.5932ZM89.0255 38.5932C88.7343 38.5932 88.4833 38.5376 88.2726 38.4263C88.0631 38.3139 87.9015 38.1529 87.7879 37.9434C87.6754 37.7327 87.6192 37.4805 87.6192 37.187C87.6192 36.9053 87.676 36.659 87.7897 36.4483C87.9033 36.2376 88.0637 36.0737 88.2708 35.9565C88.478 35.8393 88.7224 35.7807 89.0042 35.7807C89.2101 35.7807 89.3966 35.8127 89.5635 35.8766C89.7304 35.9405 89.873 36.0335 89.9914 36.1554C90.1097 36.2761 90.2009 36.4229 90.2648 36.5957C90.3287 36.7685 90.3607 36.9633 90.3607 37.1799V37.4072H87.9246V36.8674H89.4587C89.4575 36.7893 89.4374 36.7206 89.3983 36.6614C89.3605 36.601 89.309 36.5543 89.2439 36.5211C89.1799 36.4868 89.1071 36.4697 89.0255 36.4697C88.9462 36.4697 88.8734 36.4868 88.8071 36.5211C88.7408 36.5543 88.6875 36.6005 88.6473 36.6596C88.6082 36.7188 88.5875 36.7881 88.5851 36.8674V37.4498C88.5851 37.5374 88.6035 37.6155 88.6402 37.6841C88.6769 37.7528 88.7295 37.8067 88.7982 37.8457C88.8668 37.8848 88.9497 37.9043 89.0468 37.9043C89.1142 37.9043 89.1758 37.8948 89.2314 37.8759C89.2882 37.857 89.3368 37.8297 89.377 37.7942C89.4173 37.7575 89.4469 37.7137 89.4658 37.6628H90.3607C90.3299 37.8522 90.2571 38.0168 90.1423 38.1564C90.0275 38.2949 89.8754 38.4027 89.686 38.4796C89.4978 38.5554 89.2776 38.5932 89.0255 38.5932ZM93.8945 34.9072H94.8817V37.2367C94.8817 37.5137 94.8154 37.7534 94.6829 37.9558C94.5515 38.157 94.368 38.3127 94.1324 38.4228C93.8969 38.5317 93.6234 38.5861 93.3121 38.5861C92.9984 38.5861 92.7238 38.5317 92.4883 38.4228C92.2527 38.3127 92.0692 38.157 91.9378 37.9558C91.8076 37.7534 91.7425 37.5137 91.7425 37.2367V34.9072H92.7297V37.1515C92.7297 37.2639 92.7546 37.3645 92.8043 37.4533C92.854 37.5409 92.9227 37.6096 93.0103 37.6593C93.0991 37.709 93.1997 37.7339 93.3121 37.7339C93.4258 37.7339 93.5264 37.709 93.614 37.6593C93.7016 37.6096 93.7702 37.5409 93.8199 37.4533C93.8697 37.3645 93.8945 37.2639 93.8945 37.1515V34.9072ZM96.3452 37.0094V38.5435H95.3651V35.8162H96.2955V36.3347H96.3239C96.3831 36.1619 96.4873 36.0264 96.6364 35.9281C96.7868 35.8299 96.962 35.7807 97.162 35.7807C97.3549 35.7807 97.5224 35.8251 97.6645 35.9139C97.8077 36.0015 97.9184 36.1222 97.9965 36.2761C98.0758 36.43 98.1149 36.6058 98.1137 36.8035V38.5435H97.1336V37.0094C97.1348 36.8745 97.1004 36.7685 97.0306 36.6916C96.962 36.6147 96.8661 36.5762 96.743 36.5762C96.6625 36.5762 96.592 36.5939 96.5317 36.6295C96.4725 36.6638 96.4269 36.7135 96.395 36.7786C96.363 36.8425 96.3464 36.9195 96.3452 37.0094ZM98.5975 38.5435V35.8162H99.5777V38.5435H98.5975ZM99.0876 35.5322C98.955 35.5322 98.8414 35.4884 98.7467 35.4008C98.652 35.3132 98.6047 35.2078 98.6047 35.0847C98.6047 34.9616 98.652 34.8563 98.7467 34.7687C98.8414 34.6811 98.955 34.6373 99.0876 34.6373C99.2214 34.6373 99.335 34.6811 99.4285 34.7687C99.5232 34.8563 99.5706 34.9616 99.5706 35.0847C99.5706 35.2078 99.5232 35.3132 99.4285 35.4008C99.335 35.4884 99.2214 35.5322 99.0876 35.5322ZM102.826 35.8162L101.909 38.5435H100.773L99.8569 35.8162H100.887L101.327 37.6202H101.355L101.796 35.8162H102.826ZM104.328 38.5932C104.037 38.5932 103.786 38.5376 103.575 38.4263C103.366 38.3139 103.204 38.1529 103.091 37.9434C102.978 37.7327 102.922 37.4805 102.922 37.187C102.922 36.9053 102.979 36.659 103.092 36.4483C103.206 36.2376 103.366 36.0737 103.574 35.9565C103.781 35.8393 104.025 35.7807 104.307 35.7807C104.513 35.7807 104.699 35.8127 104.866 35.8766C105.033 35.9405 105.176 36.0335 105.294 36.1554C105.412 36.2761 105.504 36.4229 105.568 36.5957C105.631 36.7685 105.663 36.9633 105.663 37.1799V37.4072H103.227V36.8674H104.761C104.76 36.7893 104.74 36.7206 104.701 36.6614C104.663 36.601 104.612 36.5543 104.547 36.5211C104.483 36.4868 104.41 36.4697 104.328 36.4697C104.249 36.4697 104.176 36.4868 104.11 36.5211C104.044 36.5543 103.99 36.6005 103.95 36.6596C103.911 36.7188 103.89 36.7881 103.888 36.8674V37.4498C103.888 37.5374 103.906 37.6155 103.943 37.6841C103.98 37.7528 104.032 37.8067 104.101 37.8457C104.17 37.8848 104.252 37.9043 104.35 37.9043C104.417 37.9043 104.479 37.8948 104.534 37.8759C104.591 37.857 104.64 37.8297 104.68 37.7942C104.72 37.7575 104.75 37.7137 104.769 37.6628H105.663C105.633 37.8522 105.56 38.0168 105.445 38.1564C105.33 38.2949 105.178 38.4027 104.989 38.4796C104.8 38.5554 104.58 38.5932 104.328 38.5932ZM106.063 38.5435V35.8162H107.015V36.3347H107.043C107.093 36.1429 107.172 36.0027 107.28 35.9139C107.389 35.8251 107.516 35.7807 107.661 35.7807C107.704 35.7807 107.746 35.7843 107.787 35.7914C107.83 35.7973 107.871 35.8062 107.91 35.818V36.6543C107.861 36.6377 107.802 36.6253 107.731 36.617C107.66 36.6087 107.599 36.6046 107.548 36.6046C107.452 36.6046 107.365 36.6265 107.289 36.6703C107.213 36.7129 107.153 36.7733 107.109 36.8514C107.065 36.9283 107.043 37.0189 107.043 37.1231V38.5435H106.063ZM110.724 36.704H109.822C109.818 36.6484 109.798 36.6005 109.764 36.5602C109.729 36.52 109.685 36.4892 109.63 36.4679C109.577 36.4454 109.518 36.4341 109.453 36.4341C109.369 36.4341 109.297 36.4495 109.236 36.4803C109.176 36.5111 109.146 36.5549 109.148 36.6117C109.146 36.6519 109.164 36.6892 109.199 36.7236C109.236 36.7579 109.306 36.7845 109.41 36.8035L109.964 36.9029C110.244 36.9538 110.451 37.0396 110.588 37.1604C110.725 37.2799 110.794 37.4403 110.795 37.6415C110.794 37.8357 110.736 38.0043 110.621 38.1476C110.508 38.2896 110.352 38.3997 110.154 38.4778C109.958 38.5548 109.733 38.5932 109.481 38.5932C109.065 38.5932 108.739 38.508 108.503 38.3376C108.269 38.1671 108.138 37.9422 108.111 37.6628H109.084C109.097 37.7492 109.139 37.8161 109.211 37.8635C109.285 37.9096 109.377 37.9327 109.488 37.9327C109.578 37.9327 109.652 37.9173 109.71 37.8866C109.77 37.8558 109.8 37.812 109.801 37.7552C109.8 37.7031 109.774 37.6617 109.723 37.6309C109.673 37.6001 109.595 37.5752 109.488 37.5563L109.005 37.4711C108.727 37.4225 108.519 37.3302 108.38 37.1941C108.242 37.058 108.173 36.8828 108.175 36.6685C108.173 36.4791 108.223 36.3187 108.324 36.1873C108.425 36.0548 108.57 35.9541 108.759 35.8855C108.948 35.8157 109.172 35.7807 109.432 35.7807C109.826 35.7807 110.137 35.8624 110.364 36.0258C110.592 36.1891 110.712 36.4152 110.724 36.704ZM111.171 38.5435V35.8162H112.151V38.5435H111.171ZM111.661 35.5322C111.528 35.5322 111.415 35.4884 111.32 35.4008C111.225 35.3132 111.178 35.2078 111.178 35.0847C111.178 34.9616 111.225 34.8563 111.32 34.7687C111.415 34.6811 111.528 34.6373 111.661 34.6373C111.795 34.6373 111.908 34.6811 112.002 34.7687C112.096 34.8563 112.144 34.9616 112.144 35.0847C112.144 35.2078 112.096 35.3132 112.002 35.4008C111.908 35.4884 111.795 35.5322 111.661 35.5322ZM114.277 35.8162V36.5265H112.48V35.8162H114.277ZM112.828 35.1628H113.808V37.6664C113.808 37.7043 113.814 37.7362 113.827 37.7623C113.841 37.7871 113.861 37.8061 113.888 37.8191C113.915 37.8309 113.95 37.8368 113.993 37.8368C114.022 37.8368 114.057 37.8333 114.096 37.8262C114.136 37.8191 114.165 37.8132 114.184 37.8084L114.326 38.4974C114.283 38.5104 114.22 38.5264 114.138 38.5453C114.058 38.5642 113.962 38.5767 113.851 38.5826C113.626 38.5944 113.437 38.5713 113.284 38.5133C113.131 38.4541 113.017 38.3612 112.94 38.2346C112.863 38.1079 112.825 37.9493 112.828 37.7587V35.1628ZM115.273 39.5662C115.161 39.5662 115.054 39.5574 114.952 39.5396C114.85 39.523 114.761 39.5 114.684 39.4704L114.897 38.7743C114.977 38.8028 115.051 38.8211 115.117 38.8294C115.184 38.8377 115.242 38.8329 115.289 38.8152C115.338 38.7974 115.373 38.7637 115.394 38.714L115.415 38.6643L114.456 35.8162H115.479L115.92 37.7054H115.948L116.395 35.8162H117.425L116.431 38.7708C116.381 38.9211 116.309 39.0561 116.214 39.1756C116.121 39.2964 115.998 39.3916 115.845 39.4615C115.692 39.5313 115.502 39.5662 115.273 39.5662Z" fill="black"/>
<path d="M20.7349 19.5435V10.8162H25.9678V11.7537H21.7917V14.7026H25.5758V15.6401H21.7917V19.5435H20.7349ZM37.5415 15.1799C37.5415 16.1003 37.3753 16.8958 37.0429 17.5662C36.7105 18.2367 36.2546 18.7537 35.675 19.1174C35.0955 19.481 34.4335 19.6628 33.6892 19.6628C32.9449 19.6628 32.283 19.481 31.7034 19.1174C31.1239 18.7537 30.6679 18.2367 30.3355 17.5662C30.0031 16.8958 29.8369 16.1003 29.8369 15.1799C29.8369 14.2594 30.0031 13.464 30.3355 12.7935C30.6679 12.1231 31.1239 11.606 31.7034 11.2424C32.283 10.8787 32.9449 10.6969 33.6892 10.6969C34.4335 10.6969 35.0955 10.8787 35.675 11.2424C36.2546 11.606 36.7105 12.1231 37.0429 12.7935C37.3753 13.464 37.5415 14.2594 37.5415 15.1799ZM36.5188 15.1799C36.5188 14.4242 36.3923 13.7864 36.1395 13.2665C35.8895 12.7466 35.55 12.3532 35.121 12.0861C34.6949 11.8191 34.2176 11.6856 33.6892 11.6856C33.1608 11.6856 32.6821 11.8191 32.2531 12.0861C31.827 12.3532 31.4875 12.7466 31.2347 13.2665C30.9847 13.7864 30.8597 14.4242 30.8597 15.1799C30.8597 15.9356 30.9847 16.5733 31.2347 17.0932C31.4875 17.6131 31.827 18.0066 32.2531 18.2736C32.6821 18.5407 33.1608 18.6742 33.6892 18.6742C34.2176 18.6742 34.6949 18.5407 35.121 18.2736C35.55 18.0066 35.8895 17.6131 36.1395 17.0932C36.3923 16.5733 36.5188 15.9356 36.5188 15.1799ZM47.4458 10.8162H48.5026V16.5947C48.5026 17.1912 48.3619 17.7239 48.0807 18.1927C47.8023 18.6586 47.4088 19.0265 46.9003 19.2964C46.3918 19.5634 45.7952 19.6969 45.1105 19.6969C44.4259 19.6969 43.8293 19.5634 43.3208 19.2964C42.8122 19.0265 42.4173 18.6586 42.1361 18.1927C41.8577 17.7239 41.7185 17.1912 41.7185 16.5947V10.8162H42.7753V16.5094C42.7753 16.9356 42.869 17.3148 43.0565 17.6472C43.244 17.9768 43.5111 18.2367 43.8577 18.427C44.2071 18.6145 44.6247 18.7083 45.1105 18.7083C45.5963 18.7083 46.0139 18.6145 46.3634 18.427C46.7128 18.2367 46.9798 17.9768 47.1645 17.6472C47.352 17.3148 47.4458 16.9356 47.4458 16.5094V10.8162ZM59.9335 10.8162V19.5435H58.9107L54.1551 12.6912H54.0698V19.5435H53.013V10.8162H54.0357L58.8085 17.6856H58.8937V10.8162H59.9335ZM67.1413 19.5435H64.4482V10.8162H67.2607C68.1073 10.8162 68.8317 10.991 69.434 11.3404C70.0362 11.687 70.4979 12.1856 70.8189 12.8361C71.1399 13.4839 71.3004 14.2594 71.3004 15.1628C71.3004 16.0719 71.1385 16.8546 70.8146 17.5108C70.4908 18.1643 70.0192 18.6671 69.3999 19.0194C68.7806 19.3688 68.0277 19.5435 67.1413 19.5435ZM65.505 18.606H67.0732C67.7948 18.606 68.3928 18.4668 68.8672 18.1884C69.3416 17.91 69.6953 17.5137 69.9283 16.9995C70.1612 16.4853 70.2777 15.8731 70.2777 15.1628C70.2777 14.4583 70.1627 13.8518 69.9325 13.3432C69.7024 12.8319 69.3587 12.4398 68.9013 12.1671C68.4439 11.8915 67.8743 11.7537 67.1925 11.7537H65.505V18.606ZM75.4732 19.5435V10.8162H80.7402V11.7537H76.53V14.7026H80.4675V15.6401H76.53V18.606H80.8084V19.5435H75.4732ZM85.045 19.5435V10.8162H87.9939C88.6757 10.8162 89.2354 10.9327 89.6729 11.1657C90.1104 11.3958 90.4343 11.7126 90.6445 12.116C90.8547 12.5194 90.9598 12.9782 90.9598 13.4924C90.9598 14.0066 90.8547 14.4626 90.6445 14.8603C90.4343 15.258 90.1118 15.5705 89.6771 15.7978C89.2425 16.0222 88.6871 16.1344 88.011 16.1344H85.6246V15.1799H87.9769C88.4428 15.1799 88.8178 15.1117 89.1019 14.9753C89.3888 14.839 89.5962 14.6458 89.724 14.3958C89.8547 14.1429 89.92 13.8418 89.92 13.4924C89.92 13.1429 89.8547 12.8376 89.724 12.5762C89.5933 12.3148 89.3845 12.1131 89.0976 11.9711C88.8107 11.8262 88.4314 11.7537 87.9598 11.7537H86.1019V19.5435H85.045ZM89.153 15.6231L91.3007 19.5435H90.0735L87.9598 15.6231H89.153ZM95.8708 10.8162V11.5833C95.8708 11.8162 95.8282 12.0648 95.743 12.329C95.6606 12.5904 95.5384 12.8447 95.3765 13.0918C95.2174 13.3361 95.0242 13.5492 94.797 13.731L94.2515 13.2878C94.4305 13.0322 94.5853 12.7665 94.716 12.491C94.8495 12.2126 94.9163 11.9157 94.9163 11.6003V10.8162H95.8708ZM104.508 12.9981C104.457 12.5662 104.25 12.231 103.886 11.9924C103.523 11.7537 103.077 11.6344 102.548 11.6344C102.162 11.6344 101.824 11.6969 101.534 11.8219C101.247 11.9469 101.023 12.1188 100.861 12.3376C100.702 12.5563 100.622 12.8049 100.622 13.0833C100.622 13.3162 100.677 13.5165 100.788 13.6841C100.902 13.8489 101.047 13.9867 101.223 14.0975C101.399 14.2054 101.584 14.2949 101.777 14.366C101.97 14.4341 102.148 14.4895 102.31 14.5322L103.196 14.7708C103.423 14.8304 103.676 14.9128 103.954 15.0179C104.236 15.1231 104.504 15.2665 104.76 15.4483C105.018 15.6273 105.231 15.8574 105.399 16.1387C105.567 16.4199 105.65 16.7651 105.65 17.1742C105.65 17.6458 105.527 18.0719 105.28 18.4526C105.035 18.8333 104.677 19.1358 104.206 19.3603C103.737 19.5847 103.167 19.6969 102.497 19.6969C101.872 19.6969 101.331 19.5961 100.873 19.3944C100.419 19.1927 100.061 18.9114 99.7996 18.5506C99.5411 18.1898 99.3948 17.7708 99.3607 17.2935H100.452C100.48 17.6231 100.591 17.8958 100.784 18.1117C100.98 18.3248 101.227 18.4839 101.525 18.589C101.827 18.6912 102.15 18.7424 102.497 18.7424C102.9 18.7424 103.263 18.677 103.584 18.5464C103.905 18.4128 104.159 18.2282 104.346 17.9924C104.534 17.7537 104.628 17.4753 104.628 17.1572C104.628 16.8674 104.547 16.6316 104.385 16.4498C104.223 16.2679 104.01 16.1202 103.746 16.0066C103.481 15.8929 103.196 15.7935 102.889 15.7083L101.815 15.4015C101.133 15.2054 100.594 14.9256 100.196 14.562C99.7982 14.1983 99.5993 13.7225 99.5993 13.1344C99.5993 12.6458 99.7314 12.2197 99.9956 11.856C100.263 11.4895 100.621 11.2054 101.069 11.0037C101.521 10.7992 102.025 10.6969 102.582 10.6969C103.145 10.6969 103.645 10.7978 104.082 10.9995C104.52 11.1983 104.866 11.4711 105.122 11.8177C105.381 12.1643 105.517 12.5577 105.531 12.9981H104.508Z" fill="black"/>
<rect x="31.6781" y="21.5435" width="37" height="12" rx="5" fill="#FDD837"/>
<path d="M39.0581 25.4935L37.1181 31.5435H36.4481L34.4981 25.4935C34.4381 25.2935 34.3914 25.1769 34.3581 25.1435C34.3314 25.1035 34.2647 25.0769 34.1581 25.0635L33.6581 25.0135V24.7435H36.0081V25.0135L35.4981 25.0635C35.3914 25.0769 35.3314 25.1035 35.3181 25.1435C35.3114 25.1835 35.3381 25.3002 35.3981 25.4935L37.0481 30.6735L38.6981 25.4935C38.7647 25.3002 38.7914 25.1835 38.7781 25.1435C38.7714 25.1035 38.7114 25.0769 38.5981 25.0635L38.0881 25.0135V24.7435H39.8981V25.0135L39.3881 25.0635C39.3214 25.0702 39.2714 25.0835 39.2381 25.1035C39.2114 25.1169 39.1847 25.1535 39.1581 25.2135C39.1381 25.2669 39.1047 25.3602 39.0581 25.4935ZM42.2561 31.2835V31.5435H40.3561V31.2835L40.8961 31.2235C40.9695 31.2169 41.0228 31.2069 41.0561 31.1935C41.0895 31.1735 41.1195 31.1335 41.1461 31.0735C41.1795 31.0069 41.2195 30.8935 41.2661 30.7335L43.1961 24.7435H43.8261L45.7761 30.7335C45.8228 30.8935 45.8595 31.0069 45.8861 31.0735C45.9195 31.1335 45.9528 31.1735 45.9861 31.1935C46.0195 31.2069 46.0695 31.2169 46.1361 31.2235L46.6861 31.2835V31.5435H44.2561V31.2835L44.8061 31.2235C44.9128 31.2102 44.9695 31.1835 44.9761 31.1435C44.9895 31.0969 44.9595 30.9602 44.8861 30.7335L44.4761 29.4535H42.0361L41.6261 30.7335C41.5528 30.9602 41.5195 31.0969 41.5261 31.1435C41.5395 31.1835 41.5995 31.2102 41.7061 31.2235L42.2561 31.2835ZM42.1361 29.1335H44.3761L43.2561 25.6535L42.1361 29.1335ZM51.975 25.0135V24.7435H53.885V25.0135L53.335 25.0635C53.2284 25.0769 53.165 25.1035 53.145 25.1435C53.125 25.1835 53.115 25.3202 53.115 25.5535V29.2335C53.115 29.9935 52.9384 30.5869 52.585 31.0135C52.2384 31.4335 51.705 31.6435 50.985 31.6435C50.1984 31.6435 49.595 31.4135 49.175 30.9535C48.7617 30.4935 48.555 29.8602 48.555 29.0535V25.5535C48.555 25.3202 48.545 25.1835 48.525 25.1435C48.505 25.1035 48.4417 25.0769 48.335 25.0635L47.785 25.0135V24.7435H50.195V25.0135L49.645 25.0635C49.5384 25.0769 49.475 25.1035 49.455 25.1435C49.435 25.1835 49.425 25.3202 49.425 25.5535V29.2035C49.425 29.9169 49.5584 30.4469 49.825 30.7935C50.0984 31.1402 50.5117 31.3135 51.065 31.3135C51.625 31.3135 52.045 31.1369 52.325 30.7835C52.605 30.4302 52.745 29.9169 52.745 29.2435V25.5535C52.745 25.3202 52.735 25.1835 52.715 25.1435C52.695 25.1035 52.6317 25.0769 52.525 25.0635L51.975 25.0135ZM60.1826 29.8935H60.4526V31.5435H55.9026V31.2835L56.4526 31.2235C56.5593 31.2102 56.6226 31.1835 56.6426 31.1435C56.6626 31.1035 56.6726 30.9669 56.6726 30.7335V25.5535C56.6726 25.3202 56.6626 25.1835 56.6426 25.1435C56.6226 25.1035 56.5593 25.0769 56.4526 25.0635L55.9026 25.0135V24.7435H58.3126V25.0135L57.7626 25.0635C57.6559 25.0769 57.5926 25.1035 57.5726 25.1435C57.5526 25.1835 57.5426 25.3202 57.5426 25.5535V31.2235H59.3526C59.5126 31.2235 59.6259 31.2202 59.6926 31.2135C59.7593 31.2002 59.8026 31.1769 59.8226 31.1435C59.8493 31.1035 59.8726 31.0435 59.8926 30.9635L60.1826 29.8935ZM61.3717 24.7435H66.6917V26.3735H66.4317L66.1417 25.3235C66.1217 25.2435 66.0984 25.1869 66.0717 25.1535C66.0517 25.1135 66.0084 25.0902 65.9417 25.0835C65.8751 25.0702 65.7617 25.0635 65.6017 25.0635H64.4717V30.7335C64.4717 30.9669 64.4817 31.1035 64.5017 31.1435C64.5217 31.1835 64.5851 31.2102 64.6917 31.2235L65.2417 31.2835V31.5435H62.8317V31.2835L63.3817 31.2235C63.4884 31.2102 63.5517 31.1835 63.5717 31.1435C63.5917 31.1035 63.6017 30.9669 63.6017 30.7335V25.0635H62.4617C62.3084 25.0635 62.1951 25.0702 62.1217 25.0835C62.0551 25.0902 62.0084 25.1135 61.9817 25.1535C61.9617 25.1869 61.9417 25.2435 61.9217 25.3235L61.6317 26.3735H61.3717V24.7435Z" fill="black"/>
<path d="M16.1659 5.37011C17.6939 3.65116 20.5694 2.9031 21.8162 2.74393C21.4342 2.17095 18.4207 2.13381 16.9617 2.18687C13.0782 2.63252 10.1443 5.6619 9.1628 7.12088C6.23422 11.0044 6.66926 16.4319 7.25285 18.6601C7.63484 21.4614 11.1258 24.4961 12.8235 25.6632C13.9695 26.5546 16.0598 27.1488 16.9617 27.3344L9.24238 60.9176H12.8235L20.4856 27.3344C21.6952 27.1435 22.6385 26.7243 23.2486 26.5386C16.1182 25.2017 13.6972 20.8514 13.301 18.6601C12.8235 16.8476 12.3195 13.8322 12.5848 11.8162C13.2851 8.50559 15.264 6.13939 16.1659 5.37011Z" fill="white" stroke="white" stroke-width="0.1"/>
</g>
<defs>
<clipPath id="clip0_26_2">
<rect width="125" height="65" fill="white"/>
</clipPath>
</defs>
</svg>
